<?xml version="1.0" encoding="UTF-8" standalone="no"?>
<!-- Created with Inkscape (http://www.inkscape.org/) -->

<svg
   width="40.180096mm"
   height="21.798788mm"
   viewBox="0 0 40.180096 21.798788"
   version="1.1"
   id="svg1"
   inkscape:version="1.4.2 (f4327f4, 2025-05-13)"
   sodipodi:docname="portico_logo_nopayoff.svg"
   xmlns:inkscape="http://www.inkscape.org/namespaces/inkscape"
   xmlns:sodipodi="http://sodipodi.sourceforge.net/DTD/sodipodi-0.dtd"
   xmlns="http://www.w3.org/2000/svg"
   xmlns:svg="http://www.w3.org/2000/svg">
  <sodipodi:namedview
     id="namedview1"
     pagecolor="#ffffff"
     bordercolor="#000000"
     borderopacity="0.25"
     inkscape:showpageshadow="2"
     inkscape:pageopacity="0.0"
     inkscape:pagecheckerboard="0"
     inkscape:deskcolor="#d1d1d1"
     inkscape:document-units="mm"
     inkscape:zoom="4.1978414"
     inkscape:cx="69.202234"
     inkscape:cy="85.639253"
     inkscape:window-width="1920"
     inkscape:window-height="1051"
     inkscape:window-x="-9"
     inkscape:window-y="-9"
     inkscape:window-maximized="1"
     inkscape:current-layer="layer1" />
  <defs
     id="defs1">
    <rect
       x="140.82715"
       y="319.20819"
       width="221.2998"
       height="65.719337"
       id="rect66" />
  </defs>
  <g
     inkscape:label="Livello 1"
     inkscape:groupmode="layer"
     id="layer1"
     transform="translate(-127.1482,-119.31249)">
    <path
       d="m 153.95225,119.43306 c -2.87773,1.24506 -5.71548,2.63857 -8.59391,3.88071 -4.74315,2.12064 -9.47982,4.2503 -14.21642,6.38816 -1.26763,0.57281 -2.54665,1.12166 -3.80154,1.72835 -0.5158,0.71112 0.57841,0.43689 0.86438,0.17959 8.52946,-3.78284 17.02977,-7.65478 25.57241,-11.39733 0.18458,0.76018 -0.10987,1.10167 -0.74551,1.20903 -7.48,3.0356 -14.9495,6.13196 -22.39398,9.29701 -1.06626,0.43187 -2.13065,0.87278 -3.18059,1.35562 -0.22459,0.82994 0.74459,0.21109 1.0703,0.0959 7.51618,-3.11327 14.99508,-6.34849 22.54515,-9.35076 0.90063,-0.37486 1.80876,-0.72563 2.70463,-1.11559 0,2.60956 0,5.21913 0,7.8287 -0.38883,-0.0394 -1.32501,0.66587 -1.19637,-0.1396 -0.095,-0.961 -0.45251,-2.18147 -1.10883,-2.97833 -0.50641,-0.6549 -1.39216,-1.28144 -2.25031,-1.22005 -2.01338,-0.0919 -3.67566,1.95808 -4.05073,4.1603 -0.20668,0.62889 -0.10967,1.39227 -0.26439,1.97387 -0.66641,0.38596 -0.57067,-0.24978 -0.67113,-0.7117 -0.0142,-0.79562 -0.46141,-1.80892 -0.93375,-2.16899 -0.67934,-1.00248 -2.07617,-0.80246 -2.86558,-0.0155 -1.03629,0.96712 -1.33449,2.60828 -1.39465,4.04849 -0.5062,0.18906 -0.27379,-0.75436 -0.4502,-1.08447 -0.1642,-1.06017 -1.06212,-2.17213 -2.04835,-1.71995 -1.00197,0.44519 -1.50043,1.79857 -1.52825,2.97387 -0.0389,0.69651 -0.35123,0.97904 -0.40851,0.13557 -0.004,-0.90476 -0.54667,-2.02984 -1.45899,-1.83009 -1.04405,0.44226 -1.30121,1.91383 -1.34226,3.05014 -0.11316,-0.43703 -0.0823,-1.01402 -0.35205,-1.52947 -0.35522,-0.8753 -1.40237,-0.49938 -1.61109,0.3101 -0.30044,0.48936 -0.25823,1.24676 -0.37124,1.69384 -0.0399,-0.52056 -0.0694,-1.21491 -0.49605,-1.62674 -0.61902,-0.50316 -1.04638,0.59126 -1.14512,1.17522 -0.22118,1.26763 -0.0805,2.60516 -0.13879,3.90835 -0.7909,0.1431 -0.003,0.73437 0.43979,0.56146 3.29997,0.3369 6.61154,0.7719 9.8933,1.06528 0.47235,0.0558 0.95662,0.0713 1.42947,0.1534 2.96135,0.27254 5.8855,0.59137 8.83796,0.8463 1.95859,0.16961 3.90674,0.43175 5.8441,0.49148 1.91911,-0.10315 3.84458,-0.4933 5.76975,-0.67781 2.39459,-0.35663 4.85009,-0.59894 7.23111,-0.98707 0.52003,-0.60858 -0.58963,-0.44466 -0.90127,-0.38435 -1.58852,0.20956 -3.19133,0.36633 -4.78332,0.62583 -0.0196,-3.27338 0.0391,-6.56821 -0.0292,-9.82824 -0.15776,-1.96256 -1.05993,-4.13568 -2.77206,-4.74466 -0.68188,-0.0668 -1.4897,0.0288 -1.92587,0.67781 -1.02992,0.94578 -1.35154,2.66457 -1.34226,4.13463 -0.39739,-0.24482 -1.23568,-0.0769 -1.02324,-0.8523 -0.0326,-2.92901 0.0278,-5.87453 -0.0856,-8.77259 4.18101,2.16497 8.31251,4.46786 12.48423,6.65676 0.50631,0.48139 0.73601,-0.58736 0.14102,-0.61216 -4.20445,-2.16451 -8.3688,-4.43851 -12.52836,-6.71698 -0.13645,-0.0788 -0.25647,-0.18568 -0.41786,-0.14099 z m 4.05597,6.16806 c 1.48403,-0.0486 2.41744,1.69312 2.74886,3.17954 0.22259,0.77346 0.14143,1.59952 0.22748,2.31476 0,2.86805 0,5.7361 0,8.60414 -1.68329,0.15066 -3.34021,0.41134 -5.01891,0.57614 -0.23277,-0.18792 -0.01,-1.11385 -0.0875,-1.5731 -0.0521,-2.67119 -0.021,-5.34522 -0.0292,-8.01791 0.41746,-0.42066 -0.13323,-0.9518 0.0584,-1.53416 0.0945,-1.43958 0.68919,-3.27407 2.10094,-3.54941 z m -9.22078,0.20335 c 0.72645,-0.0574 1.52318,0.1061 2.04258,0.74559 -1.33718,0.13467 -2.71036,0.80668 -3.48932,2.14102 -0.51261,0.80707 -0.80689,1.80543 -0.82927,2.80698 -0.37621,-0.1637 -1.17537,0.0262 -0.99212,-0.47648 -0.0129,-0.80408 0.0792,-1.48988 0.32657,-2.28595 0.45035,-1.49769 1.57073,-2.72746 2.94156,-2.93116 z m 2.04258,1.28783 c 0.69668,-0.17749 0.85632,0.85482 1.06832,1.41344 0.18005,0.56339 0.1821,1.19207 0.0989,1.73838 0.27042,0.54421 0.0448,1.29165 0.12203,1.91502 0.0272,2.711 -0.0212,5.46889 0.053,8.15045 -0.71851,0.038 -1.2994,-0.16835 -1.98422,-0.13556 -0.3642,-0.12712 -0.94585,-0.0669 -1.40062,-0.13557 -0.53318,-0.0592 -0.91357,-0.16902 -1.45898,-0.13556 -0.66227,0.0326 -0.22523,-1.00559 -0.35016,-1.50532 0,-2.09649 0,-4.19299 0,-6.28949 0.3607,-0.38437 -0.23133,-0.89834 0.0875,-1.38951 0.2451,-1.86061 1.68155,-3.29484 3.26813,-3.52461 0.1312,-0.0998 0.34851,-0.0119 0.49606,-0.10167 z m -8.92899,1.22006 c 0.30194,-0.14811 1.39423,0.48439 0.70032,0.50836 -1.06048,0.44224 -1.78579,1.36507 -2.0899,2.63798 -0.20134,0.51606 0.0438,1.4709 -0.68461,1.12625 -0.54554,-0.0789 -0.11936,-0.88701 -0.20182,-1.29023 0.19265,-1.39856 0.95554,-2.80096 2.27601,-2.98236 z m 1.02129,0.94893 c 0.6345,-0.19145 0.66486,0.77772 0.84621,1.25395 0.23014,0.55781 -0.20445,1.16204 0.11672,1.59285 0,2.48531 0,4.97061 0,7.45591 -0.56467,-0.0405 -0.9611,-0.16433 -1.51734,-0.13556 -0.38987,-0.15722 -1.01149,-0.0453 -1.40062,-0.20335 -0.37602,-0.18792 -0.0267,-1.18613 -0.14001,-1.70561 0.0452,-1.57308 -0.058,-3.18765 0.0816,-4.73357 -0.25006,-0.31363 -0.0166,-0.9647 0.08,-1.38287 0.28966,-1.04728 1.00129,-1.87679 1.93341,-2.14175 z m -6.09855,0.88116 c 0.58818,-0.1562 1.11859,0.42489 0.33132,0.67493 -0.69786,0.59439 -1.05476,1.65989 -1.08999,2.64633 -0.7098,0.14797 -0.71833,-0.51591 -0.58359,-1.05363 0.11981,-0.90652 0.50548,-1.94745 1.34226,-2.26763 z m 16.89503,0 c 0.20275,0.41451 0.0303,1.26474 0.0875,1.84826 0,2.84074 0,5.68148 0,8.52222 -0.3318,-0.18728 -1.27089,0.22903 -1.19915,-0.44207 -0.0316,-3.21672 -0.0291,-6.43748 -0.0264,-9.65729 0.37217,-0.11885 0.76053,-0.17516 1.138,-0.27112 z m 0.61278,0 c 0.41855,0.19864 1.26888,0.052 1.05047,0.85231 0,3.12754 0,6.25507 0,9.38261 -0.41301,-0.051 -1.26413,0.48172 -1.05047,-0.37784 0,-3.2857 0,-6.57139 0,-9.85708 z m -16.45734,0.81337 c 0.33715,0.25428 0.33697,1.06526 0.35016,1.56401 -0.12229,0.29805 0.0356,0.89652 0,1.42643 0,1.69183 0,3.38366 0,5.07549 -0.62205,-0.10663 -1.14916,-0.16209 -1.80914,-0.20334 0.0885,-1.73285 -0.029,-3.50957 0.11672,-5.21913 -0.0953,-0.31224 0.036,-0.93595 0.20425,-1.38951 0.23254,-0.58069 0.5895,-1.07986 1.13801,-1.25395 z m -4.61039,0.54224 c 0.87162,-0.0541 0.36236,0.46269 -0.0259,0.8541 -0.33523,0.45815 -0.49789,1.06459 -0.55771,1.6538 -0.61809,0.20899 -0.34674,-0.7502 -0.26262,-1.11838 0.0741,-0.56198 0.3768,-1.16792 0.84621,-1.38952 z m 11.70105,0.33891 c 0.0681,2.19119 0.01,4.52929 0.0292,6.77697 0.1771,0.65079 -0.14995,1.4508 -0.64195,0.84738 0,-2.49626 0,-4.99253 0,-7.48879 0.21009,-0.0129 0.41034,-0.0733 0.61277,-0.13556 z m 0.49606,0 c 0.47817,0.0603 1.28633,-0.0816 1.05047,0.75165 0,2.39291 0,4.78582 0,7.17872 -0.45193,-0.0755 -1.21824,0.21407 -1.05047,-0.58119 0,-2.44972 0,-4.89945 0,-7.34918 z m -11.4968,0.40669 c 0.43849,-0.0309 0.0587,2.28615 0.21824,1.41257 0.042,0.50442 0.11023,1.0675 0.0736,1.64969 0,1.08045 0,2.16091 0,3.24137 -0.3897,-0.12462 -1.20202,0.23275 -1.13668,-0.4426 0.0437,-1.54339 -0.0495,-3.12345 0.0862,-4.64098 0.15428,-0.48922 0.35066,-0.9547 0.75867,-1.22005 z m -3.20976,0.20334 c 0.54632,0.2231 -0.4145,0.75096 -0.37179,1.24731 -0.26833,1.21718 -0.0748,2.51543 -0.14845,3.76679 0.15418,1.00095 -0.5215,0.70615 -0.29679,-0.14195 0.0676,-1.35362 -0.17132,-2.7605 0.21461,-4.04895 0.13294,-0.35052 0.27165,-0.68196 0.60242,-0.8232 z m 8.81226,0.54225 c 0.61043,-0.10494 1.00641,0.21024 0.81703,0.95701 0,1.75961 0,3.51922 0,5.27883 -0.62848,0.051 -1.07771,-0.11426 -0.87539,-0.95701 0.001,-1.76043 -0.0198,-3.52013 0.0584,-5.27883 z m -0.49605,0.0678 c 0.0787,1.47286 -0.008,3.09212 0,4.61415 -0.13019,0.43377 0.29866,1.58813 -0.28813,1.38588 -0.22078,-0.43426 -0.0247,-1.21749 -0.0912,-1.78089 -7.9e-4,-1.36847 0.0135,-2.77245 0.0875,-4.11747 0.0973,-0.0339 0.19453,-0.0678 0.2918,-0.10167 z m -7.96606,0.13556 c 0.33279,0.24552 0.0839,1.04265 0.17508,1.4932 0,1.19679 0,2.39358 0,3.59037 -0.67506,0.15901 -0.62331,-0.52612 -0.58359,-1.19727 0.0418,-1.07664 -0.0948,-2.27521 0.0912,-3.23605 0.0548,-0.25157 0.21504,-0.42684 0.31732,-0.65025 z m -2.45109,0.0678 c 0.43474,0.30529 -0.35086,0.9433 -0.21602,1.45886 -0.1553,0.95947 -0.0407,2.15118 -0.0758,3.21803 -0.38927,-0.19753 -0.0724,-1.21521 -0.17507,-1.74559 -2.7e-4,-0.95426 -0.0354,-1.73384 0.25772,-2.60925 0.0103,-0.14978 0.13625,-0.217 0.20915,-0.32205 z m 6.76969,0.54225 c 0.78532,-0.17136 0.56628,0.66452 0.58359,1.29996 0,1.21601 0,2.43203 0,3.64805 -0.77483,0.25942 -0.66923,-0.57429 -0.64195,-1.19728 0,-1.22765 0,-2.4553 0,-3.68295 z m -0.55442,0.13556 c 0.0681,1.49114 0.01,3.12925 0.0292,4.67689 -0.50393,-0.0527 -0.10732,-1.15137 -0.23343,-1.6429 0,-0.98874 0,-1.97747 0,-2.96621 0.0681,-0.0226 0.13617,-0.0452 0.20425,-0.0678 z m -5.92347,0.33891 c 0.13644,0.51443 0.0192,1.32346 0.0584,1.95094 -0.0638,0.55246 0.1247,1.39796 -0.0884,1.77701 -0.2008,-0.41643 -0.03,-1.26449 -0.0867,-1.84827 -0.0111,-0.68944 -0.0121,-1.27508 0.11672,-1.87968 z m 3.32648,0.13556 c 0.72782,-0.1603 0.29053,1.00502 0.40852,1.50532 0,0.83125 0,1.6625 0,2.49375 -0.73167,0.21245 -0.2886,-0.93948 -0.40852,-1.43753 0,-0.85385 0,-1.7077 0,-2.56154 z m -0.52523,0.0678 c 0.14033,0.51441 0.0292,1.32341 0.0731,1.95087 0.005,0.63755 0.01,1.27509 0.0144,1.91264 -0.20274,-0.41451 -0.0303,-1.26474 -0.0875,-1.84826 0,-0.67175 0,-1.3435 0,-2.01525 z m -2.27602,0.88115 c 0.13645,0.51443 0.0192,1.32346 0.0584,1.95094 0.0285,1.15432 -0.10461,0.49619 -0.0584,-0.26651 0,-0.56148 0,-1.12295 0,-1.68443 z"
       style="fill:#2c2c2c;fill-opacity:0.17254902;stroke:#2c2c2c;stroke-width:0.112;stroke-dasharray:none;stroke-opacity:0.17254902"
       id="path35-4" />
    <text
       xml:space="preserve"
       transform="matrix(0.26458332,0,0,0.26458332,67.642374,170.86505)"
       id="text66"
       style="text-align:start;writing-mode:lr-tb;direction:ltr;white-space:pre;shape-inside:url(#rect66);display:inline;fill:#000000" />
  </g>
</svg>
