<?xml version="1.0" encoding="UTF-8" standalone="no"?>
<svg
   version="1.1"
   viewBox="0 0 1607.2075 168.9251"
   width="803.6037"
   height="84.462547"
   id="svg34"
   sodipodi:docname="portico_logo.svg"
   inkscape:version="1.4.2 (f4327f4, 2025-05-13)"
   xml:space="preserve"
   xmlns:inkscape="http://www.inkscape.org/namespaces/inkscape"
   xmlns:sodipodi="http://sodipodi.sourceforge.net/DTD/sodipodi-0.dtd"
   xmlns:xlink="http://www.w3.org/1999/xlink"
   xmlns="http://www.w3.org/2000/svg"
   xmlns:svg="http://www.w3.org/2000/svg"><defs
     id="defs34"><linearGradient
       id="linearGradient68"
       inkscape:collect="always"><stop
         style="stop-color:#000000;stop-opacity:1;"
         offset="0"
         id="stop68" /><stop
         style="stop-color:#000000;stop-opacity:0;"
         offset="1"
         id="stop69" /></linearGradient><rect
       x="140.82715"
       y="319.20819"
       width="221.2998"
       height="65.719337"
       id="rect66" /><linearGradient
       inkscape:collect="always"
       xlink:href="#linearGradient68"
       id="linearGradient70"
       x1="2.30968e-07"
       y1="564.88617"
       x2="1739.951"
       y2="564.88617"
       gradientUnits="userSpaceOnUse"
       gradientTransform="translate(-2.0544637e-6)" /><linearGradient
       inkscape:collect="always"
       xlink:href="#linearGradient1"
       id="linearGradient2"
       x1="127.09845"
       y1="130.18317"
       x2="167.37781"
       y2="130.18317"
       gradientUnits="userSpaceOnUse"
       gradientTransform="matrix(57.13932,0,0,57.13932,-8358.5857,-9343.039)" /><linearGradient
       id="linearGradient1"
       inkscape:collect="always"><stop
         style="stop-color:#ebebeb;stop-opacity:1;"
         offset="0"
         id="stop1" /><stop
         style="stop-color:#bababa;stop-opacity:1;"
         offset="1"
         id="stop2" /></linearGradient></defs><sodipodi:namedview
     id="namedview34"
     pagecolor="#ffffff"
     bordercolor="#000000"
     borderopacity="0.25"
     inkscape:showpageshadow="2"
     inkscape:pageopacity="0.0"
     inkscape:pagecheckerboard="0"
     inkscape:deskcolor="#d1d1d1"
     showgrid="false"
     inkscape:zoom="1.4911898"
     inkscape:cx="365.81528"
     inkscape:cy="161.95122"
     inkscape:window-width="1920"
     inkscape:window-height="1051"
     inkscape:window-x="-9"
     inkscape:window-y="-9"
     inkscape:window-maximized="1"
     inkscape:current-layer="svg34" /><text
     xml:space="preserve"
     style="font-style:normal;font-variant:normal;font-weight:normal;font-stretch:normal;font-size:165.5px;font-family:'Playfair Display';-inkscape-font-specification:'Playfair Display';text-align:start;writing-mode:lr-tb;direction:ltr;text-anchor:start;fill:#2c2c2c;fill-opacity:1;stroke:#2c2c2c;stroke-width:0;stroke-dasharray:none;stroke-opacity:1"
     x="423.06876"
     y="126.34418"
     id="text65"
     transform="scale(0.76164623,1.3129455)"><tspan
       sodipodi:role="line"
       id="tspan65"
       style="font-style:normal;font-variant:normal;font-weight:normal;font-stretch:normal;font-size:165.5px;font-family:'Playfair Display';-inkscape-font-specification:'Playfair Display';fill:#2c2c2c;fill-opacity:1;stroke:#2c2c2c;stroke-width:0;stroke-dasharray:none;stroke-opacity:1"
       x="423.06876"
       y="126.34418">OMBRA DEL PORTICO</tspan></text><text
     xml:space="preserve"
     transform="matrix(2,0,0,2,-260.89741,-117.41604)"
     id="text66"
     style="text-align:start;writing-mode:lr-tb;direction:ltr;white-space:pre;shape-inside:url(#rect66);display:inline;fill:#000000" /><path
     d="M 202.61329,0.89771512 C 180.86037,10.309195 159.40966,20.842815 137.65145,30.232215 c -35.85373,16.03004 -71.658482,32.12825 -107.462702,48.28846 -9.58208,4.3299 -19.250267,8.47869 -28.7360496,13.06469 -3.898961,5.3754 4.3722329,3.30248 6.5338959,1.35753 C 72.461258,64.348195 136.71556,35.079985 201.28985,6.7898451 c 1.39525,5.7462399 -0.83051,8.3275899 -5.63535,9.1391299 -56.54173,22.94627 -113.004092,46.35182 -169.277332,70.27661 -8.05992,3.26453 -16.105698,6.59739 -24.0422527,10.24721 -1.69768792,6.273565 5.628397,1.59564 8.0904567,0.72491 56.815226,-23.53338 113.348638,-47.98859 170.420028,-70.68291 6.80792,-2.83359 13.67252,-5.48508 20.44445,-8.43281 0,19.72581 0,39.45169 0,59.17758 -2.93918,-0.29783 -10.01582,5.03335 -9.04342,-1.05525 -0.71811,-7.26425 -3.42055,-16.48985 -8.38171,-22.51336 -3.82798,-4.95042 -10.52342,-9.68647 -17.01022,-9.22242 -15.21925,-0.69468 -27.78452,14.80123 -30.61969,31.44794 -1.56231,4.75381 -0.829,10.52424 -1.99854,14.92059 -5.03743,2.91749 -4.31373,-1.8881 -5.07311,-5.37978 -0.10734,-6.01414 -3.48782,-13.67373 -7.05827,-16.39552 -5.13517,-7.5778 -15.69388,-6.06584 -21.66108,-0.11716 -7.833366,7.31051 -10.087472,19.71613 -10.542222,30.60276 -3.8264,1.429115 -2.0696,-5.70225 -3.40309,-8.19757 -1.2412,-8.01388 -8.02862,-16.41925 -15.48359,-13.0012 -7.57395,3.36522 -11.34184,13.59549 -11.55213,22.479655 -0.29405,5.26495 -2.65497,7.40061 -3.08795,1.02478 -0.0302,-6.839135 -4.13231,-15.343675 -11.02858,-13.833755 -7.89204,3.34307 -9.83592,14.466755 -10.14622,23.056175 -0.85539,-3.30354 -0.62211,-7.66503 -2.66117,-11.561345 -2.68513,-6.61644 -10.60059,-3.77484 -12.17832,2.344065 -2.27104,3.69909 -1.95197,9.42432 -2.80622,12.80382 -0.30161,-3.93494 -0.5246,-9.18357 -3.74967,-12.29661 -4.6792057,-3.803415 -7.9096437,4.46936 -8.6560257,8.88355 -1.671911,9.58208 -0.608504,19.69255 -1.049121,29.54343 -5.9784569,1.0817 -0.02268,5.55115 3.324397,4.24411 24.9446597,2.54664 49.9769997,5.83483 74.7839997,8.05251 3.57052,0.4218 7.23115,0.53896 10.805446,1.15956 22.385006,2.06014 44.488816,4.4702 66.806626,6.39723 14.80509,1.28209 29.53126,3.26362 44.17587,3.71512 14.50666,-0.77971 29.0614,-3.72888 43.61386,-5.1236 18.10084,-2.69579 36.6621,-4.52742 54.66037,-7.46132 3.93093,-4.60029 -4.45705,-3.36121 -6.81275,-2.90532 -12.00772,1.58407 -24.12344,2.76911 -36.15739,4.73068 -0.14815,-24.74366 0.29556,-49.64945 -0.22072,-74.292205 -1.19252,-14.8351 -8.01207,-31.26183 -20.95416,-35.86515 -5.15436,-0.50494 -11.26072,0.2177 -14.55775,5.12361 -7.78523,7.1492 -10.21637,20.14163 -10.14622,31.25389 -3.00389,-1.8506 -9.34058,-0.58129 -7.73473,-6.44258 -0.24642,-22.14055 0.21014,-44.4059 -0.64705,-66.3124899 31.60448,16.3651199 62.83472,33.7727999 94.36898,50.3188099 3.82723,3.63886 5.56354,-4.43988 1.06598,-4.62735 -31.78167,-16.36165 -63.26022,-33.55094 -94.70257,-50.7740199 -1.03143,-0.59566 -1.93867,-1.40356998 -3.15862,-1.06574998 z m 30.6593,46.62470988 c 11.21787,-0.36737 18.27357,12.79838 20.77879,24.03432 1.68257,5.84662 1.06908,12.09086 1.71953,17.4974 0,21.679735 0,43.359485 0,65.039165 -12.72408,1.13884 -25.24883,3.10934 -37.93822,4.35507 -1.75952,-1.4205 -0.0756,-8.41965 -0.66141,-11.89115 -0.39383,-20.19167 -0.15874,-40.40481 -0.22073,-60.607825 3.15561,-3.17979 -1.00709,-7.1947 0.44145,-11.5968 0.71433,-10.88186 5.20963,-24.74887 15.88112,-26.83018 z m -69.70038,1.53713 c 5.49127,-0.43389 11.5138,0.80202 15.43997,5.63596 -10.10782,1.01798 -20.48776,6.09774 -26.37596,16.18409 -3.87485,6.10068 -6.09933,13.64734 -6.2685,21.21811 -2.84379,-1.23741 -8.88469,0.19805 -7.49949,-3.60174 -0.0975,-6.07808 0.59868,-11.26208 2.46856,-17.27962 3.40422,-11.32112 11.87324,-20.61702 22.23542,-22.1568 z m 15.43997,9.73478 c 5.26625,-1.34166 6.47297,6.46163 8.07549,10.68427 1.36101,4.2587 1.37651,9.01092 0.74759,13.14051 2.04412,4.11372 0.33865,9.76366 0.92243,14.47574 0.20561,20.492595 -0.16025,41.339645 0.40063,61.609705 -5.43125,0.28724 -9.82223,-1.27257 -14.99882,-1.02471 -2.75301,-0.9609 -7.14974,-0.5057 -10.58737,-1.02478 -4.03034,-0.44749 -6.90573,-1.27763 -11.02851,-1.0247 -5.00614,0.24642 -1.70253,-7.60131 -2.64688,-11.3788 0,-15.84749 0,-31.69505 0,-47.542605 2.72655,-2.90547 -1.74863,-6.7906 0.66142,-10.50338 1.85272,-14.06445 12.71093,-24.90588 24.70397,-26.64272 0.99175,-0.7544 2.63441,-0.0899 3.74975,-0.76853 z m -67.49473,9.2225 c 2.28238,-1.11957 10.53906,3.66153 5.29376,3.84272 -8.01623,3.34292 -13.49889,10.31864 -15.79767,19.94064 -1.521936,3.90093 0.33109,11.118615 -5.175006,8.513395 -4.123756,-0.596415 -0.90224,-6.704965 -1.52556,-9.752925 1.45625,-10.5718 7.222976,-21.17262 17.204476,-22.54383 z m 7.71999,7.17302 c 4.79622,-1.44719 5.02571,5.87882 6.39655,9.47867 1.73964,4.21652 -1.54545,8.78393 0.88229,12.04044 0,18.786595 0,37.573115 0,56.359635 -4.26837,-0.30614 -7.26501,-1.24218 -11.46966,-1.0247 -2.94705,-1.18844 -7.64591,-0.34243 -10.58736,-1.53714 -2.84236,-1.4205 -0.20183,-8.96602 -1.05834,-12.8928 0.34166,-11.891 -0.43843,-24.09562 0.61681,-35.78131 -1.89021,-2.370745 -0.12548,-7.292225 0.60473,-10.453195 2.18955,-7.91645 7.56881,-14.18676 14.61475,-16.1896 z m -46.099272,6.66073 c 4.44609,-1.18072 8.45549,3.21177 2.50447,5.10184 -5.27517,4.49302 -7.97299,12.5472 -8.2393,20.003745 -5.36542,1.11851 -5.42989,-3.89978 -4.41139,-7.964445 0.90565,-6.85243 3.82095,-14.72088 10.14622,-17.14114 z m 127.710462,0 c 1.5326,3.13331 0.22904,9.56024 0.66142,13.9711 0,21.473305 0,42.946625 0,64.419935 -2.5081,-1.41566 -9.60673,1.73125 -9.06444,-3.34164 -0.23887,-24.31536 -0.21997,-48.66126 -0.19956,-72.999985 2.81325,-0.89839 5.74889,-1.32404 8.6022,-2.04941 z m 4.63204,0 c 3.16384,1.50153 9.59153,0.39307 7.94056,6.44266 0,23.641245 0,47.282415 0,70.923665 -3.12197,-0.38551 -9.55563,3.64135 -7.94056,-2.85611 0,-24.83679 0,-49.6735 0,-74.510215 z m -124.401942,6.14831 c 2.54854,1.92212 2.54718,8.05236 2.64688,11.82244 -0.9244,2.252985 0.2691,6.776835 0,10.782455 0,12.78864 0,25.57728 0,38.36591 -4.70211,-0.80602 -8.68656,-1.22524 -13.67539,-1.53705 0.66898,-13.09871 -0.21921,-26.52904 0.88229,-39.4517 -0.72037,-2.36024 0.27213,-7.07489 1.54394,-10.503375 1.75778,-4.38947 4.45606,-8.16272 8.60228,-9.47868 z m -34.85019,4.09882 c 6.58862,-0.40894 2.7391,3.4975 -0.19578,6.45619 -2.53402,3.463185 -3.76358,8.047295 -4.21576,12.501165 -4.67218,1.57977 -2.62103,-5.6708 -1.98516,-8.45389 0.56012,-4.248045 2.84825,-8.828375 6.39655,-10.503465 z m 88.448872,2.56184 c 0.51478,16.563325 0.0756,34.237155 0.22073,51.227495 1.33871,4.91935 -1.13348,10.96667 -4.85254,6.40539 0,-18.86937 0,-37.73881 0,-56.608175 1.58809,-0.0975 3.10179,-0.55408 4.63197,-1.02471 z m 3.74975,0 c 3.61451,0.45581 9.72344,-0.61682 7.94056,5.681775 0,18.08813 0,36.17627 0,54.26433 -3.41616,-0.57071 -9.20874,1.61817 -7.94056,-4.39325 0,-18.51757 0,-37.03521 0,-55.552855 z m -86.904942,3.0742 c 3.31457,-0.23358 0.44372,17.281125 1.64969,10.677685 0.31748,3.81294 0.83323,8.06929 0.55635,12.4701 0,8.16718 0,16.33444 0,24.50169 -2.94577,-0.94201 -9.08614,1.75937 -8.59223,-3.34563 0.33033,-11.66657 -0.37418,-23.61034 0.65159,-35.08143 1.16621,-3.69803 2.65066,-7.216625 5.73483,-9.222415 z m -24.26275,1.53705 c 4.12966,1.686435 -3.13323,5.676555 -2.81038,9.428485 -2.02833,9.20073 -0.56542,19.01427 -1.12215,28.47337 1.16546,7.56624 -3.94204,5.33783 -2.24345,-1.073 0.51099,-10.23209 -1.29502,-20.86678 1.62225,-30.60624 1.0049,-2.64959 2.05342,-5.15497 4.55373,-6.222615 z m 66.612356,4.098905 c 4.61427,-0.79325 7.607506,1.58922 6.175966,7.23408 0,13.30099 0,26.60198 0,39.90297 -4.750706,0.38551 -8.146466,-0.8637 -6.617116,-7.23409 0.008,-13.30719 -0.14967,-26.60886 0.44145,-39.90296 z m -3.749666,0.51251 c 0.5949,11.13342 -0.0605,23.37349 0,34.8786 -0.98411,3.27889 2.257586,12.00476 -2.17799,10.47595 -1.66889,-3.2826 -0.18671,-9.20308 -0.68939,-13.46185 -0.006,-10.34434 0.10205,-20.9571 0.66142,-31.12418 0.7355,-0.25625 1.47046,-0.5125 2.20573,-0.76852 z m -60.21589,1.0247 c 2.51558,1.85589 0.6342,7.88144 1.32344,11.28717 0,9.0466 0,18.09321 0,27.13981 -5.10282,1.20196 -4.71164,-3.97697 -4.41139,-9.05023 0.31597,-8.13838 -0.7166,-17.19844 0.68939,-24.46148 0.41423,-1.90163 1.6255,-3.22651 2.39864,-4.91527 z m -18.527926,0.5125 c 3.286226,2.3077 -2.6521697,7.13045 -1.6329067,11.0276 -1.173921,7.25269 -0.307653,16.26089 -0.572976,24.32527 -2.942514,-1.49314 -0.547276,-9.18584 -1.323364,-13.19502 -0.002,-7.2133 -0.267591,-13.10619 1.94812,-19.72346 0.07786,-1.1322 1.0299207,-1.64032 1.5809757,-2.43439 z m 51.172466,4.09889 c 5.93627,-1.29532 4.28054,5.02315 4.41139,9.82647 0,9.19189 0,18.38385 0,27.57582 -5.85699,1.96097 -5.05875,-4.34109 -4.85254,-9.05031 0,-9.27988 0,-18.55975 0,-27.83962 z m -4.19089,1.02471 c 0.51477,11.27161 0.0756,23.65417 0.22072,35.35287 -3.80924,-0.39836 -0.81124,-8.70327 -1.76451,-12.41877 0,-7.47394 0,-14.94781 0,-22.42175 0.51477,-0.17083 1.02932,-0.34167 1.54394,-0.5125 z m -44.775843,2.56184 c 1.031353,3.8886 0.145134,10.00411 0.441453,14.74726 -0.482272,4.17608 0.94261,10.56726 -0.668225,13.43252 -1.517858,-3.14782 -0.226772,-9.55835 -0.65537,-13.97118 -0.08391,-5.21151 -0.09146,-9.6384 0.882293,-14.2086 z m 25.145043,1.0247 c 5.50164,-1.21171 2.19614,7.59701 3.08803,11.3788 0,6.28347 0,12.56693 0,18.8504 -5.53074,1.60592 -2.18154,-7.10159 -3.08803,-10.86637 0,-6.4543 0,-12.9086 0,-19.36283 z m -3.97024,0.51251 c 1.06076,3.88845 0.22073,10.00373 0.55257,14.74673 0.0378,4.81928 0.0756,9.63848 0.10885,14.45775 -1.53252,-3.1333 -0.22904,-9.56024 -0.66142,-13.9711 0,-5.07779 0,-10.15559 0,-15.23338 z m -17.20456,6.66066 c 1.03143,3.8886 0.14513,10.00411 0.44145,14.74726 0.21543,8.72557 -0.79075,3.75073 -0.44145,-2.01456 0,-4.24426 0,-8.48844 0,-12.7327 z"
     style="fill:url(#linearGradient2);fill-opacity:1;stroke:url(#linearGradient2);stroke-width:0.846614;stroke-dasharray:none;stroke-opacity:1"
     id="path35-4" /></svg>
